<svg xmlns="http://www.w3.org/2000/svg" viewBox="0 0 215.7 34.78"><defs><style>.cls-1{fill:#fff;}.cls-2{fill:#ee7123;}</style></defs><title>Asset 4</title><g id="Layer_2" data-name="Layer 2"><g id="Layer_1-2" data-name="Layer 1"><rect class="cls-1" x="109.62" y="0.19" width="0.72" height="34.43"/><polygon class="cls-1" points="41.42 12 43.9 12 43.9 22.8 41.42 22.8 41.42 25.2 48.97 25.2 48.97 22.8 46.48 22.8 46.48 12 48.97 12 48.97 9.6 41.42 9.6 41.42 12"/><path class="cls-1" d="M63.55,11.92a6.3,6.3,0,0,0-2.29-1.7,7.71,7.71,0,0,0-3.18-.62H52V25.2h6.12a7.23,7.23,0,0,0,4-1.06,6.69,6.69,0,0,0,2.46-2.83,9.31,9.31,0,0,0,.82-3.91,9.55,9.55,0,0,0-.47-3A7.29,7.29,0,0,0,63.55,11.92Zm-9,.17H58a4.79,4.79,0,0,1,2.76.73,4.35,4.35,0,0,1,1.55,1.94,6.9,6.9,0,0,1,.5,2.64,7,7,0,0,1-.5,2.67A4.27,4.27,0,0,1,60.73,22a4.85,4.85,0,0,1-2.76.72H54.53Z"/><path class="cls-1" d="M75.33,17.72l-5-8.12H67.86V25.2h2.58V18.79c0-.91,0-1.79,0-2.62s-.07-1.37-.13-2.05l4.19,6.62,0,0H76l4.34-6.69c-.07.69-.11,1.38-.14,2.07s-.06,1.7-.06,2.63V25.2h2.58V9.6H80.4Z"/><path class="cls-1" d="M94.18,16.92a10.62,10.62,0,0,0-2.48-.82,7.81,7.81,0,0,1-2.27-.82,1.66,1.66,0,0,1-.82-1.55,1.66,1.66,0,0,1,.78-1.47,3.47,3.47,0,0,1,2-.54,3.54,3.54,0,0,1,2,.6,5,5,0,0,1,1.47,1.57L95,14l1.81-1.79,0-.07a5.31,5.31,0,0,0-2.11-2,6.69,6.69,0,0,0-3.2-.72,6.51,6.51,0,0,0-2.65.54,4.93,4.93,0,0,0-2,1.53A3.8,3.8,0,0,0,86,13.8,4,4,0,0,0,87.34,17a7.72,7.72,0,0,0,3.48,1.55,7.36,7.36,0,0,1,2.59.93,1.84,1.84,0,0,1,.89,1.63,1.4,1.4,0,0,1-.41,1,2.6,2.6,0,0,1-1.08.68,4.54,4.54,0,0,1-3.88-.46,8,8,0,0,1-1.86-2L87,20.3l-1.76,2,0,.07a6.84,6.84,0,0,0,2.6,2.32,7.59,7.59,0,0,0,3.29.71,6.18,6.18,0,0,0,4.18-1.32,4.49,4.49,0,0,0,1.53-3.57,3.3,3.3,0,0,0-.76-2.17A5.76,5.76,0,0,0,94.18,16.92Z"/><path class="cls-1" d="M101.41,9a1.64,1.64,0,0,0-.58-.56,1.58,1.58,0,0,0-.81-.21,1.63,1.63,0,0,0-.81.21,1.56,1.56,0,0,0-.58.56,1.51,1.51,0,0,0-.22.79,1.54,1.54,0,0,0,.22.79,1.56,1.56,0,0,0,.58.56,1.63,1.63,0,0,0,.81.21,1.58,1.58,0,0,0,.81-.21,1.64,1.64,0,0,0,.58-.56,1.54,1.54,0,0,0,.22-.79A1.51,1.51,0,0,0,101.41,9ZM101,10.32a1.24,1.24,0,0,1-.42.4,1.18,1.18,0,0,1-.59.15,1.14,1.14,0,0,1-.58-.15,1.18,1.18,0,0,1-.43-.4,1.1,1.1,0,0,1,0-1.14,1.21,1.21,0,0,1,.43-.41,1.14,1.14,0,0,1,.58-.15,1.18,1.18,0,0,1,.59.15,1.27,1.27,0,0,1,.42.41,1.1,1.1,0,0,1,0,1.14Z"/><path class="cls-1" d="M100.7,9.4a.49.49,0,0,0-.14-.36.56.56,0,0,0-.38-.14h-.77v1.66h.4V9.91h.2l.24.65h.42l-.27-.69a.51.51,0,0,0,.21-.17A.49.49,0,0,0,100.7,9.4Zm-.46.17a.31.31,0,0,1-.2,0h-.23V9.25h.25a.36.36,0,0,1,.19.05.16.16,0,0,1,.07.14A.16.16,0,0,1,100.24,9.57Z"/><path class="cls-1" d="M123,15.47a3,3,0,0,0-1.62-.45,2.6,2.6,0,0,0-1.31.35,3.15,3.15,0,0,0-.8.65V12.46h-1.4v9.37h1.4v-.77a3.52,3.52,0,0,0,.84.62,2.84,2.84,0,0,0,1.31.31,2.92,2.92,0,0,0,1.59-.45,3.13,3.13,0,0,0,1.12-1.24,3.77,3.77,0,0,0,.41-1.81,3.76,3.76,0,0,0-.41-1.8A3,3,0,0,0,123,15.47ZM123,19.62a2,2,0,0,1-.7.79,1.78,1.78,0,0,1-1,.3,1.83,1.83,0,0,1-1-.3,2,2,0,0,1-.71-.79,2.66,2.66,0,0,1,0-2.25,1.92,1.92,0,0,1,.71-.78,1.9,1.9,0,0,1,1-.28,1.85,1.85,0,0,1,1,.28,1.9,1.9,0,0,1,.7.78,2.56,2.56,0,0,1,0,2.25Z"/><path class="cls-1" d="M128.63,20c0,.08-.07.17-.1.26s0,.09,0,.14l-.05-.12a1.31,1.31,0,0,0-.07-.19l-2.09-4.86v0h-1.63l3.12,7-1.15,2.61h1.52l1.14-2.92,2.74-6.6,0-.07h-1.66Z"/><path class="cls-1" d="M143.21,14.28a3.81,3.81,0,0,0-1.32-1,4.59,4.59,0,0,0-1.83-.35h-3.53v8.9h3.53a4.21,4.21,0,0,0,2.32-.6,3.91,3.91,0,0,0,1.42-1.62,5.51,5.51,0,0,0,.2-3.93A4.42,4.42,0,0,0,143.21,14.28Zm-.72,4.66a2.43,2.43,0,0,1-.9,1.1,2.75,2.75,0,0,1-1.6.42h-2V14.37h2a2.75,2.75,0,0,1,1.6.42,2.51,2.51,0,0,1,.9,1.11,4.27,4.27,0,0,1,0,3Z"/><path class="cls-1" d="M150,15.43a3,3,0,0,0-1.55-.42,3.56,3.56,0,0,0-1.71.43,3.3,3.3,0,0,0-1.27,1.22,3.77,3.77,0,0,0-.47,1.92,3.47,3.47,0,0,0,.45,1.76,3.23,3.23,0,0,0,1.25,1.21,3.87,3.87,0,0,0,1.86.44,3.75,3.75,0,0,0,1.51-.31,4.05,4.05,0,0,0,1.12-.68l.05-.06-.7-1,0,0a5.07,5.07,0,0,1-.71.5,2.18,2.18,0,0,1-1.1.25,2.36,2.36,0,0,1-1.56-.51,2,2,0,0,1-.72-1.33h5.1v-.6a3.42,3.42,0,0,0-.41-1.7A3.11,3.11,0,0,0,150,15.43Zm.09,2.31h-3.62a1.68,1.68,0,0,1,.7-1.1,2.41,2.41,0,0,1,1.28-.33,1.76,1.76,0,0,1,.76.17,1.71,1.71,0,0,1,.6.5,1.42,1.42,0,0,1,.28.72Z"/><path class="cls-1" d="M157.65,15.94a3.4,3.4,0,0,0-.77-.61,2.54,2.54,0,0,0-1.25-.31,3.26,3.26,0,0,0-1.71.45,3.12,3.12,0,0,0-1.17,1.22,4,4,0,0,0,0,3.61,3.18,3.18,0,0,0,1.11,1.24,2.84,2.84,0,0,0,1.56.45,2.72,2.72,0,0,0,1.41-.37,3.44,3.44,0,0,0,.83-.68v.92h1.42v-6.7h-1.42Zm-.2,3.68a2,2,0,0,1-.7.79,2,2,0,0,1-2.05,0,1.89,1.89,0,0,1-.69-.79,2.66,2.66,0,0,1,0-2.25,1.9,1.9,0,0,1,.69-.77,2,2,0,0,1,2.05,0,2,2,0,0,1,.7.78,2.44,2.44,0,0,1,.25,1.1A2.57,2.57,0,0,1,157.45,19.62Z"/><rect class="cls-1" x="160.67" y="12.46" width="1.41" height="9.4"/><path class="cls-1" d="M174.31,15a2.19,2.19,0,0,0-1.22.4,2.5,2.5,0,0,0-.76.83V15.16h-1.42v6.7h1.42V18.17a1.55,1.55,0,0,1,.25-.89,1.8,1.8,0,0,1,.63-.57,1.74,1.74,0,0,1,.78-.2,1.58,1.58,0,0,1,.38,0,1.75,1.75,0,0,1,.3.1l.05,0,.37-1.51h0A1.62,1.62,0,0,0,174.31,15Z"/><path class="cls-1" d="M180.75,17.14a6.31,6.31,0,0,0-1.43-.47,4.42,4.42,0,0,1-1.31-.46,1,1,0,0,1-.48-.9.94.94,0,0,1,.46-.84,2,2,0,0,1,1.14-.31,2.09,2.09,0,0,1,1.2.34,2.9,2.9,0,0,1,.84.9l0,.06,1-1v0A3.12,3.12,0,0,0,181,13.24a4.25,4.25,0,0,0-3.37-.1,2.87,2.87,0,0,0-1.14.87,2.16,2.16,0,0,0-.44,1.34,2.25,2.25,0,0,0,.76,1.84,4.36,4.36,0,0,0,2,.89,4.2,4.2,0,0,1,1.5.53,1.05,1.05,0,0,1,.52.94.81.81,0,0,1-.24.59,1.56,1.56,0,0,1-.63.39,2.46,2.46,0,0,1-.81.14,2.38,2.38,0,0,1-1.44-.4,4.74,4.74,0,0,1-1.07-1.14l0-.05-1,1.12,0,0,0,0a3.86,3.86,0,0,0,1.49,1.32A4.41,4.41,0,0,0,179,22a3.62,3.62,0,0,0,2.41-.75,2.59,2.59,0,0,0,.88-2,1.86,1.86,0,0,0-.44-1.24A3.29,3.29,0,0,0,180.75,17.14Z"/><path class="cls-1" d="M188.36,15.47a3.63,3.63,0,0,0-3.5,0,3.33,3.33,0,0,0-1.24,1.23,3.77,3.77,0,0,0,0,3.61,3.25,3.25,0,0,0,1.24,1.23,3.63,3.63,0,0,0,3.5,0,3.33,3.33,0,0,0,1.24-1.23,3.77,3.77,0,0,0,0-3.61A3.4,3.4,0,0,0,188.36,15.47Zm.26,3a2.36,2.36,0,0,1-.25,1.14,2,2,0,0,1-.73.78,2,2,0,0,1-1,.28,2,2,0,0,1-1-.28,2,2,0,0,1-.73-.78,2.37,2.37,0,0,1-.26-1.14,2.39,2.39,0,0,1,.26-1.16,1.94,1.94,0,0,1,.73-.77,2,2,0,0,1,1-.27,2,2,0,0,1,1,.27,1.94,1.94,0,0,1,.73.77,2.39,2.39,0,0,1,.25,1.16Z"/><path class="cls-1" d="M196.1,19.73a3.56,3.56,0,0,1-.75.67,1.86,1.86,0,0,1-1.08.32,2,2,0,0,1-1-.29,2.09,2.09,0,0,1-.77-.79,2.24,2.24,0,0,1-.29-1.13,2.34,2.34,0,0,1,.27-1.14,2,2,0,0,1,.75-.79,1.93,1.93,0,0,1,2.07,0,2.42,2.42,0,0,1,.82.72l0,.05.78-1v0a2.71,2.71,0,0,0-1.1-1,3.65,3.65,0,0,0-1.68-.38,3.17,3.17,0,0,0-1.67.46,3.3,3.3,0,0,0-1.18,1.25,3.8,3.8,0,0,0,0,3.55,3.3,3.3,0,0,0,1.18,1.25,3.17,3.17,0,0,0,1.67.46,3.33,3.33,0,0,0,1.14-.19,3.75,3.75,0,0,0,1-.48,2.78,2.78,0,0,0,.67-.65l0,0-.79-.95Z"/><polygon class="cls-1" points="204.09 15.25 204.18 15.16 202.27 15.16 199.33 18.05 199.33 12.46 197.92 12.46 197.92 21.86 199.33 21.86 199.33 19.67 200 19.04 202.43 21.85 202.44 21.86 204.25 21.86 201 18.12 204.09 15.25"/><polygon class="cls-1" points="214.15 15.16 214.15 13.48 212.74 13.48 212.74 15.16 211.35 15.16 211.35 16.52 212.74 16.52 212.74 21.86 214.15 21.86 214.15 16.52 215.7 16.52 215.7 15.16 214.15 15.16"/><path class="cls-1" d="M168.19,15.43a3,3,0,0,0-1.55-.42,3.6,3.6,0,0,0-1.72.43,3.35,3.35,0,0,0-1.26,1.22,3.67,3.67,0,0,0-.48,1.92,3.47,3.47,0,0,0,.45,1.76,3.26,3.26,0,0,0,1.26,1.21,3.87,3.87,0,0,0,1.86.44,3.75,3.75,0,0,0,1.51-.31,3.84,3.84,0,0,0,1.11-.68l.06-.06-.7-1,0,0a5.07,5.07,0,0,1-.71.5,2.21,2.21,0,0,1-1.1.25,2.34,2.34,0,0,1-1.56-.51,2,2,0,0,1-.72-1.33h5.1v-.6a3.42,3.42,0,0,0-.41-1.7A3.11,3.11,0,0,0,168.19,15.43Zm.09,2.31h-3.63a1.72,1.72,0,0,1,.7-1.1,2.48,2.48,0,0,1,1.29-.33,1.8,1.8,0,0,1,.76.17,1.71,1.71,0,0,1,.6.5,1.42,1.42,0,0,1,.28.72Z"/><path class="cls-1" d="M209.19,15.43a2.93,2.93,0,0,0-1.55-.42,3.59,3.59,0,0,0-1.71.43,3.28,3.28,0,0,0-1.26,1.22,3.67,3.67,0,0,0-.48,1.92,3.47,3.47,0,0,0,.45,1.76,3.19,3.19,0,0,0,1.26,1.21,3.84,3.84,0,0,0,1.86.44,3.66,3.66,0,0,0,1.5-.31,3.91,3.91,0,0,0,1.12-.68l.06-.06-.7-1,0,0a5.74,5.74,0,0,1-.71.5,2.21,2.21,0,0,1-1.1.25,2.39,2.39,0,0,1-1.57-.51,2.08,2.08,0,0,1-.71-1.33h5.09l0-.6a3.32,3.32,0,0,0-.42-1.7A3,3,0,0,0,209.19,15.43Zm.09,2.31h-3.62a1.72,1.72,0,0,1,.7-1.1,2.46,2.46,0,0,1,1.28-.33,1.81,1.81,0,0,1,.77.17,1.71,1.71,0,0,1,.6.5,1.32,1.32,0,0,1,.27.72Z"/><path class="cls-2" d="M29.69,5.09a17.39,17.39,0,1,1-24.6,0,17.4,17.4,0,0,1,24.6,0"/><path class="cls-1" d="M23,8.82a2.17,2.17,0,0,0-3.07,0L11.76,17,9.23,14.46a.72.72,0,0,0-.83-.14.73.73,0,0,0-.41.74l1,9.15L23.71,9.52Z"/><path class="cls-1" d="M25.93,12.18a.73.73,0,0,0-.49-.6.7.7,0,0,0-.75.17l-13.1,13.1a.72.72,0,0,0,0,1,2.45,2.45,0,0,0,3.45,0l8-8,2.53,2.53a.73.73,0,0,0,1.24-.59Z"/></g></g></svg>